<?xml version="1.0" encoding="UTF-8" standalone="no"?>
<svg
   xmlns:dc="http://purl.org/dc/elements/1.1/"
   xmlns:cc="http://creativecommons.org/ns#"
   xmlns:rdf="http://www.w3.org/1999/02/22-rdf-syntax-ns#"
   xmlns:svg="http://www.w3.org/2000/svg"
   xmlns="http://www.w3.org/2000/svg"
   xmlns:sodipodi="http://sodipodi.sourceforge.net/DTD/sodipodi-0.dtd"
   xmlns:inkscape="http://www.inkscape.org/namespaces/inkscape"
   width="92.74234"
   height="104.57988"
   version="1.1"
   id="svg2"
   inkscape:version="0.91 r13725"
   sodipodi:docname="qjackctl.svg">
  <sodipodi:namedview
     pagecolor="#ffffff"
     bordercolor="#666666"
     borderopacity="1"
     objecttolerance="10"
     gridtolerance="10"
     guidetolerance="10"
     inkscape:pageopacity="0"
     inkscape:pageshadow="2"
     inkscape:window-width="1920"
     inkscape:window-height="1038"
     id="namedview17"
     showgrid="false"
     fit-margin-top="0"
     fit-margin-left="0"
     fit-margin-right="0"
     fit-margin-bottom="0"
     inkscape:zoom="1.84375"
     inkscape:cx="-26.306797"
     inkscape:cy="52.28994"
     inkscape:window-x="-2"
     inkscape:window-y="15"
     inkscape:window-maximized="1"
     inkscape:current-layer="svg2" />
  <title
     id="title4">Audio Jack Icon</title>
  <desc
     id="desc6">This icon is a part of Clarity icon theme for gtk</desc>
  <metadata
     id="metadata8">
    <rdf:RDF>
      <cc:Work
         rdf:about="">
        <dc:title>Audio Jack Icon</dc:title>
        <dc:description>This icon is a part of Clarity icon theme for gtk</dc:description>
        <dc:creator>
          <cc:Agent>
            <dc:title>Jakub Jankiewicz</dc:title>
          </cc:Agent>
        </dc:creator>
        <dc:rights>
          <cc:Agent>
            <dc:title>Jakub Jankiewicz</dc:title>
          </cc:Agent>
        </dc:rights>
        <dc:date>2010</dc:date>
        <dc:format>image/svg+xml</dc:format>
        <dc:type
           rdf:resource="http://purl.org/dc/dcmitype/StillImage" />
        <cc:license
           rdf:resource="http://www.gnu.org/copyleft/gpl.html" />
      </cc:Work>
    </rdf:RDF>
  </metadata>
  <defs
     id="defs10">
    <linearGradient
       x1="0"
       y1="128"
       x2="128"
       y2="0"
       id="gradient"
       gradientUnits="userSpaceOnUse">
      <stop
         id="start"
         style="stop-color:#dbdbdb;stop-opacity:1"
         offset="0" />
      <stop
         id="stop"
         style="stop-color:#757575;stop-opacity:1"
         offset="1" />
    </linearGradient>
  </defs>
  <path
     d="m 42.459781,0.43781264 c -2.015784,-0.9625 -3.121684,-0.160542 -3.483873,0.70244896 -0.385978,0.919671 -0.987822,1.659178 1.841993,3.695442 1.49875,1.078463 3.286414,1.854856 4.339253,3.371717 1.052839,1.51686 1.641879,3.4017114 1.641879,5.2481504 0,1.846438 -0.58904,3.731289 -1.641879,5.24815 -1.052839,1.516861 -2.609426,2.725935 -4.339253,3.371717 -2.749177,1.026328 -6.110101,0.739091 -9.352848,-0.234554 -3.271632,-0.982319 -6.568576,-2.626335 -10.261746,-3.870145 -3.714658,-1.251047 -7.964809,-2.083381 -12.1968178,-0.967536 -2.127904,0.56106 -4.158756,1.596138 -5.805217,3.22512 -1.658309,1.640705 -2.857772,3.815975 -3.137162,6.245006 -0.349329,3.037093 0.760923,5.935652 2.550777,8.150758 1.766342,2.186008 4.116733,3.672989 6.508879,4.661765 4.7593128,1.967227 9.5938358,2.150924 13.6627818,3.313078 4.874999,1.392376 7.883128,2.875912 11.229282,6.684794 l 4.896318,4.896319 c 2.832367,2.832366 3.798897,9.985264 6.420922,12.607288 l 7.65233,7.652331 c 2.18502,2.18502 3.75074,4.15564 5.717259,5.24815 1.966518,1.09251 3.019885,-0.439789 3.019885,-0.439789 l 19.262763,19.233447 1.290048,-1.29005 1.964394,4.98428 5.89317,2.40418 1.31937,-1.29005 1.29005,-1.31937 -2.37486,-5.92249 -5.0136,-1.93508 1.29005,-1.31936 -19.233446,-19.233446 c 0,0 1.5323,-1.082687 0.439789,-3.049205 -1.09251,-1.966518 -3.06313,-3.502919 -5.24815,-5.687939 l -7.65233,-7.652331 C 52.327767,54.548585 45.053399,53.460584 42.342504,50.749688 L 37.446185,45.853369 C 33.494386,41.355091 29.833954,39.728154 24.076596,38.083762 19.292997,36.717491 14.661284,36.496239 10.912241,34.946599 9.0502102,34.176942 7.4065752,33.08665 6.2797962,31.69216 c -1.103267,-1.365394 -1.730596,-3.125736 -1.553922,-4.661765 0.141375,-1.229119 0.799853,-2.510554 1.759157,-3.459674 0.971155,-0.960845 2.29087,-1.674598 3.7235478,-2.052349 2.889151,-0.761778 6.234752,-0.219927 9.499445,0.879578 3.286179,1.10674 6.626518,2.793278 10.408342,3.928783 3.810708,1.144177 8.193162,1.695976 12.343415,0.146596 2.644952,-0.987419 4.957699,-2.782232 6.567517,-5.101554 1.609819,-2.319321 2.462819,-5.092949 2.462819,-7.916204 0,-2.823256 -0.853,-5.5968824 -2.462819,-7.9162044 l -0.02932,-0.02932 C 47.38935,3.2073756 44.994964,1.6483166 42.45978,0.43781164 Z"
     style="fill:#bebebe;fill-opacity:1;stroke:none"
     id="path15"
     inkscape:connector-curvature="0" />
</svg>
