<?xml version="1.0" encoding="UTF-8" standalone="no"?>
<svg
   xmlns:dc="http://purl.org/dc/elements/1.1/"
   xmlns:cc="http://creativecommons.org/ns#"
   xmlns:rdf="http://www.w3.org/1999/02/22-rdf-syntax-ns#"
   xmlns:svg="http://www.w3.org/2000/svg"
   xmlns="http://www.w3.org/2000/svg"
   xmlns:sodipodi="http://sodipodi.sourceforge.net/DTD/sodipodi-0.dtd"
   xmlns:inkscape="http://www.inkscape.org/namespaces/inkscape"
   width="12.00035"
   height="12.0003"
   viewBox="0 0 12.00035 12.0003"
   version="1.1"
   id="svg2"
   inkscape:version="0.91 r13725"
   sodipodi:docname="unplug.svg">
  <metadata
     id="metadata19">
    <rdf:RDF>
      <cc:Work
         rdf:about="">
        <dc:format>image/svg+xml</dc:format>
        <dc:type
           rdf:resource="http://purl.org/dc/dcmitype/StillImage" />
        <dc:title>network-error-symbolic</dc:title>
      </cc:Work>
    </rdf:RDF>
  </metadata>
  <sodipodi:namedview
     pagecolor="#ffffff"
     bordercolor="#666666"
     borderopacity="1"
     objecttolerance="10"
     gridtolerance="10"
     guidetolerance="10"
     inkscape:pageopacity="0"
     inkscape:pageshadow="2"
     inkscape:window-width="1920"
     inkscape:window-height="1038"
     id="namedview17"
     showgrid="false"
     fit-margin-top="0"
     fit-margin-left="0"
     fit-margin-right="0"
     fit-margin-bottom="0"
     inkscape:zoom="14.75"
     inkscape:cx="6.1365432"
     inkscape:cy="5.992"
     inkscape:window-x="-2"
     inkscape:window-y="15"
     inkscape:window-maximized="1"
     inkscape:current-layer="network-error-symbolic" />
  <!-- Generator: Sketch 39.1 (31720) - http://www.bohemiancoding.com/sketch -->
  <title
     id="title4">network-error-symbolic</title>
  <desc
     id="desc6">Created with Sketch.</desc>
  <defs
     id="defs8" />
  <g
     id="Page-1"
     style="fill:none;fill-rule:evenodd;stroke:none;stroke-width:1"
     transform="translate(-1.99905,-1.9917)">
    <g
       id="network-error-symbolic">
      <polygon
         id="Fill-108"
         points="0,0 0,16 16,16 16,0 " />
      <path
         d="m 6.3568,7.515 c -0.191,0.027 -0.372,0.12 -0.503,0.26 l -1.19,1.188 c -0.161,0.155 -0.257,0.373 -0.261,0.595 l 0,1.187 0,0.019 -2.229,2.2 c -0.233,0.233 -0.233,0.621 0,0.854 0.235,0.232 0.623,0.232 0.857,0 l 2.227,-2.218 1.192,0 c 0.221,-0.006 0.44,-0.101 0.595,-0.261 l 1.19,-1.188 c 0.307,-0.315 0.307,-0.874 0,-1.188 L 7.0448,7.775 C 6.8688,7.593 6.6088,7.494 6.3568,7.515"
         id="Fill-128"
         style="fill:#bebebe;fill-opacity:1"
         inkscape:connector-curvature="0" />
      <path
         d="m 9.6429,8.4687 c 0.19,-0.026 0.37,-0.12 0.503,-0.26 l 1.189,-1.187 c 0.162,-0.156 0.257,-0.373 0.261,-0.595 l 0,-1.188 0,-0.018 2.228,-2.201 c 0.234,-0.232 0.234,-0.621 0,-0.854 -0.233,-0.232 -0.622,-0.232 -0.856,0 l -2.228,2.218 -1.19,0 c -0.222,0.006 -0.441,0.102 -0.596,0.262 l -1.191,1.187 c -0.306,0.315 -0.306,0.874 0,1.189 l 1.191,1.187 c 0.176,0.183 0.436,0.281 0.689,0.26"
         id="Fill-130"
         style="fill:#bebebe;fill-opacity:1"
         inkscape:connector-curvature="0" />
      <path
         d="m 9.5053,10.4832 2.995,2.995"
         id="Stroke-261"
         inkscape:connector-curvature="0"
         style="stroke:#ff001e;stroke-width:1.00300002;stroke-linecap:round" />
      <path
         d="m 12.5007,10.4832 -2.995,2.995"
         id="Stroke-262"
         inkscape:connector-curvature="0"
         style="stroke:#ff001e;stroke-width:1.00300002;stroke-linecap:round" />
    </g>
  </g>
</svg>
