<?xml version="1.0" encoding="UTF-8" standalone="no"?>
<!-- Generator: Adobe Illustrator 19.0.0, SVG Export Plug-In . SVG Version: 6.00 Build 0)  -->

<svg
   xmlns:dc="http://purl.org/dc/elements/1.1/"
   xmlns:cc="http://creativecommons.org/ns#"
   xmlns:rdf="http://www.w3.org/1999/02/22-rdf-syntax-ns#"
   xmlns:svg="http://www.w3.org/2000/svg"
   xmlns="http://www.w3.org/2000/svg"
   xmlns:sodipodi="http://sodipodi.sourceforge.net/DTD/sodipodi-0.dtd"
   xmlns:inkscape="http://www.inkscape.org/namespaces/inkscape"
   version="1.1"
   id="Layer_1"
   x="0px"
   y="0px"
   viewBox="0 0 60 60"
   xml:space="preserve"
   inkscape:version="0.91 r13725"
   sodipodi:docname="Usb-01.svg"
   width="60"
   height="60"><metadata
     id="metadata11"><rdf:RDF><cc:Work
         rdf:about=""><dc:format>image/svg+xml</dc:format><dc:type
           rdf:resource="http://purl.org/dc/dcmitype/StillImage" /><dc:title></dc:title></cc:Work></rdf:RDF></metadata><defs
     id="defs9" /><sodipodi:namedview
     pagecolor="#ffffff"
     bordercolor="#666666"
     borderopacity="1"
     objecttolerance="10"
     gridtolerance="10"
     guidetolerance="10"
     inkscape:pageopacity="0"
     inkscape:pageshadow="2"
     inkscape:window-width="1920"
     inkscape:window-height="1038"
     id="namedview7"
     showgrid="false"
     fit-margin-top="0"
     fit-margin-left="9.9"
     fit-margin-right="9.9"
     fit-margin-bottom="0"
     inkscape:zoom="2.4583333"
     inkscape:cx="30.713559"
     inkscape:cy="30"
     inkscape:window-x="-2"
     inkscape:window-y="15"
     inkscape:window-maximized="1"
     inkscape:current-layer="XMLID_2_" /><style
     type="text/css"
     id="style3">
	.st0{fill:#333333;}
</style><g
     id="XMLID_2_"
     transform="translate(-18.1,-18)"><path
       id="XMLID_4_"
       class="st0"
       d="m 61.1,66.7 -11.3,0 0,2.8 -5.7,0 0,-8.5 22.7,0 0,5.7 11.3,-8.5 -11.3,-8.5 0,5.7 -22.7,0 0,-8.5 5.9,0 c 1,2 3.1,3.4 5.5,3.4 3.4,0 6.2,-2.8 6.2,-6.2 0,-3.4 -2.8,-6.2 -6.2,-6.2 -2.4,0 -4.4,1.4 -5.5,3.4 l -5.9,0 c -3.1,0 -5.7,2.5 -5.7,5.7 l 0,8.5 -8.6,0 c -1,-2 -3.1,-3.4 -5.5,-3.4 -3.4,0 -6.2,2.8 -6.2,6.2 0,3.4 2.8,6.2 6.2,6.2 2.4,0 4.5,-1.4 5.5,-3.4 l 8.6,0 0,8.5 c 0,3.1 2.5,5.7 5.7,5.7 l 5.7,0 0,2.8 11.3,0 0,-11.4 z"
       inkscape:connector-curvature="0"
       style="fill:#6a94c7;fill-opacity:1" /></g></svg>